<?xml version="1.0" encoding="utf-8"?>
<!-- Generator: Adobe Illustrator 13.0.0, SVG Export Plug-In . SVG Version: 6.00 Build 14948)  -->
<!DOCTYPE svg PUBLIC "-//W3C//DTD SVG 1.1//EN" "http://www.w3.org/Graphics/SVG/1.1/DTD/svg11.dtd">
<svg version="1.1" xmlns="http://www.w3.org/2000/svg" xmlns:xlink="http://www.w3.org/1999/xlink" x="0px" y="0px" width="595px"
	 height="595px" viewBox="0 0 595 595" enable-background="new 0 0 595 595" xml:space="preserve">
<g id="Слой_3">
	<path d="M500.454,11.829H92.644c-45.542,0-82.594,37.052-82.594,82.595v407.811c0,45.543,37.053,82.596,82.594,82.596h407.81
		c45.543,0,82.595-37.053,82.595-82.596V94.423C583.049,48.881,545.997,11.829,500.454,11.829z"/>
	
		<linearGradient id="SVGID_1_" gradientUnits="userSpaceOnUse" x1="295.6528" y1="-124.4912" x2="295.6528" y2="-231.4951" gradientTransform="matrix(1 0 0 -1 0 342.0029)">
		<stop  offset="0" style="stop-color:#000000"/>
		<stop  offset="0.2467" style="stop-color:#040404"/>
		<stop  offset="0.5165" style="stop-color:#121212"/>
		<stop  offset="0.7817" style="stop-color:#262626"/>
		<stop  offset="0.9001" style="stop-color:#131313"/>
		<stop  offset="0.9949" style="stop-color:#000000"/>
	</linearGradient>
	<path fill="url(#SVGID_1_)" d="M292.997,466.494c-82.866,0-145.497,8.176-186.152,24.297
		c-41.693,16.535-47.919,36.873-47.919,47.523c0,8.902,4.063,17.527,11.44,24.285c7.674,7.027,17.742,10.898,28.35,10.898h395
		c20.867,0,38.571-15.52,38.663-33.889c0.054-10.729-6.176-31.246-48.503-48.111c-41.391-16.492-105.12-24.904-189.418-25.002
		L292.997,466.494L292.997,466.494z"/>
	<linearGradient id="SVGID_2_" gradientUnits="userSpaceOnUse" x1="295.6528" y1="327.4976" x2="295.6528" y2="20.4951">
		<stop  offset="0" style="stop-color:#000000"/>
		<stop  offset="0.156" style="stop-color:#040404"/>
		<stop  offset="0.327" style="stop-color:#121212"/>
		<stop  offset="0.505" style="stop-color:#282828"/>
		<stop  offset="0.6867" style="stop-color:#464646"/>
		<stop  offset="0.7817" style="stop-color:#595959"/>
		<stop  offset="0.8384" style="stop-color:#464646"/>
		<stop  offset="0.9534" style="stop-color:#141414"/>
		<stop  offset="0.9949" style="stop-color:#000000"/>
	</linearGradient>
	<path fill="url(#SVGID_2_)" d="M292.997,327.498c-82.866,0-145.497-23.837-186.152-70.847
		c-41.693-48.21-47.919-107.51-47.919-138.567c0-25.961,4.063-51.109,11.44-70.811c7.674-20.491,17.742-26.778,28.35-26.778h395
		c20.867,0,38.571,40.25,38.663,93.812c0.054,31.283-6.176,91.107-48.503,140.285c-41.391,48.087-105.12,72.616-189.418,72.904
		L292.997,327.498L292.997,327.498z"/>
</g>
<g id="dragon">
	<g>
		<path fill="#FBB03B" d="M298.908,480.898c-0.248,0-0.496-0.039-0.739-0.122c-16.925-5.745-65.673-36.088-80.338-73.653
			c-6.771-17.343-5.792-34.233,2.913-50.198c15.766-28.919,52.947-35.171,85.752-40.688c31.946-5.372,59.537-10.012,58.248-33.982
			c-0.84-15.633-20.689-38.248-54.389-38.248c-24.666,0-65.092,12.174-117.603,70.18c-0.45,0.498-1.075,0.755-1.706,0.755
			c-0.467,0-0.94-0.143-1.345-0.436c-0.95-0.687-1.23-1.979-0.651-2.998c17.683-31.154,37.279-54.661,58.238-69.866
			c18.208-13.209,36.938-19.907,55.674-19.907c19.631,0,38.552,7.87,51.917,21.592c10.956,11.25,17.042,25.215,16.693,38.313
			c-0.988,37.173-26.757,39.808-54.038,42.597c-23.024,2.355-49.121,5.023-64.822,28.991c-13.458,20.546-12.948,43.998,1.515,69.701
			c11.989,21.304,30.365,38.688,40.238,48.027c3.144,2.973,5.22,4.938,6.238,6.206c0.637,0.799,0.674,1.921,0.086,2.758
			C300.352,480.546,299.643,480.898,298.908,480.898L298.908,480.898z"/>
		<path fill="#1A1A1A" d="M302.963,224.033c38.874,0,67.027,30.626,66.313,57.545c-1.748,65.793-83.484,16.958-118.485,70.391
			c-37.621,57.432,41.122,117.897,48.116,126.631c-21.438-7.277-108.313-61.567-76.143-120.574
			c30.634-56.194,147.059-24.147,144.277-75.893c-0.883-16.449-21.323-40.424-56.685-40.424c-29.985,0-70.699,17.243-119.308,70.935
			C228.643,246.415,269.721,224.033,302.963,224.033L302.963,224.033z M302.963,219.436c-19.23,0-38.416,6.845-57.025,20.346
			c-21.228,15.399-41.041,39.15-58.888,70.593c-1.158,2.039-0.596,4.622,1.304,5.995c0.811,0.586,1.754,0.872,2.692,0.872
			c1.26,0,2.508-0.516,3.411-1.512c51.946-57.379,91.698-69.423,115.899-69.423c18.833,0,31.236,7.056,38.325,12.975
			c8.09,6.756,13.366,15.606,13.769,23.098c1.121,20.861-20.676,25.595-56.334,31.591c-33.321,5.603-71.089,11.954-87.389,41.854
			c-9.044,16.589-10.066,34.13-3.038,52.134c8.413,21.549,26.764,39.259,40.678,50.321c16.188,12.87,32.632,21.812,41.062,24.673
			c0.485,0.165,0.984,0.244,1.478,0.244c1.469,0,2.887-0.706,3.766-1.959c1.172-1.672,1.101-3.918-0.176-5.513
			c-1.116-1.393-3.239-3.401-6.454-6.442c-9.784-9.257-27.996-26.487-39.813-47.486c-14.007-24.894-14.543-47.54-1.593-67.309
			c15.101-23.053,39.519-25.55,63.132-27.964c14.067-1.438,27.354-2.797,37.659-8.621c11.942-6.749,17.976-18.591,18.443-36.203
			c0.364-13.713-5.957-28.284-17.344-39.976C342.733,227.56,323.21,219.436,302.963,219.436L302.963,219.436z"/>
	</g>
	<g>
		<path fill="#999999" d="M359.491,467.255c-0.712,0-1.404-0.331-1.848-0.933c-12.547-16.966-28.057-17.991-41.741-18.895
			c-2.71-0.18-5.269-0.348-7.793-0.627c-0.456-0.05-0.887-0.236-1.235-0.533c-17.171-14.581-55.813-52.87-43.832-93.385
			c0.29-0.984,1.193-1.647,2.202-1.647c0.072,0,0.145,0.004,0.217,0.01c1.096,0.104,1.964,0.968,2.072,2.062
			c3.086,30.969,28.741,45.864,42.525,53.864c1.879,1.092,3.501,2.034,4.88,2.902c3.327,2.099,6.644,4.008,9.853,5.858
			c17.415,10.034,32.457,18.701,36.973,48.681c0.158,1.044-0.416,2.062-1.392,2.466
			C360.086,467.197,359.788,467.255,359.491,467.255L359.491,467.255z"/>
		<path fill="#1A1A1A" d="M265.248,353.535c3.618,36.322,36.8,51.132,48.465,58.485c21.042,13.265,40.598,18.555,45.778,52.936
			c-15.641-21.15-35.4-18.7-51.13-20.439C295.614,433.69,253.105,394.587,265.248,353.535L265.248,353.535z M265.245,348.937
			c-2.018,0-3.824,1.326-4.406,3.294c-12.366,41.81,27.033,80.917,44.546,95.79c0.699,0.593,1.56,0.964,2.472,1.064
			c2.574,0.285,5.157,0.456,7.892,0.637c13.831,0.913,28.133,1.856,40.047,17.967c0.888,1.201,2.272,1.864,3.697,1.864
			c0.591,0,1.188-0.113,1.761-0.351c1.95-0.81,3.1-2.844,2.784-4.933c-4.682-31.072-20.913-40.426-38.097-50.328
			c-3.189-1.838-6.486-3.738-9.775-5.812c-1.415-0.892-3.056-1.844-4.954-2.946c-13.428-7.796-38.42-22.307-41.388-52.104
			c-0.218-2.188-1.954-3.915-4.143-4.122C265.534,348.943,265.389,348.937,265.245,348.937L265.245,348.937z"/>
	</g>
	<g>
		<path fill="#B2B2B2" d="M374.317,431.751c-0.044,0-0.088-0.002-0.132-0.004c-0.769-0.044-1.464-0.471-1.852-1.135
			c-7.062-12.085-15.191-17.907-30.743-26.385c-2.71-1.477-5.84-2.872-9.152-4.35c-14.604-6.514-34.606-15.436-50.24-45.242
			c-0.525-1.004-0.242-2.241,0.668-2.916c0.408-0.304,0.889-0.452,1.368-0.452c0.587,0,1.17,0.225,1.614,0.662
			c21.837,21.541,43.078,26.739,57.135,30.179c4.04,0.989,7.528,1.843,10.363,2.909c19.7,7.414,32.668,16.585,46.396,26.293
			c1.609,1.138,3.224,2.28,4.858,3.426c0.87,0.608,1.21,1.734,0.822,2.722c-0.35,0.892-1.208,1.46-2.143,1.46
			c-0.103,0-0.208-0.006-0.313-0.021c-0.933-0.129-1.901-0.196-2.878-0.196c-9.623,0-19.513,6.252-23.934,12.131
			C375.721,431.414,375.037,431.751,374.317,431.751L374.317,431.751z"/>
		<path fill="#1A1A1A" d="M284.234,353.567c28.491,28.104,55.877,28.926,68.302,33.602c21.744,8.182,35.398,18.7,50.747,29.452
			c-1.06-0.146-2.124-0.216-3.191-0.216c-10.451,0-20.974,6.663-25.772,13.048c-7.68-13.146-16.778-19.148-31.629-27.243
			C327.838,394.116,303.025,389.396,284.234,353.567L284.234,353.567z M284.232,348.969c-0.957,0-1.918,0.297-2.735,0.903
			c-1.821,1.349-2.387,3.823-1.335,5.83c16.003,30.513,36.426,39.623,51.338,46.274c3.271,1.459,6.361,2.837,8.99,4.27
			c15.466,8.43,23.033,13.839,29.859,25.525c0.776,1.329,2.167,2.182,3.704,2.271c0.089,0.005,0.178,0.008,0.267,0.008
			c1.439,0,2.803-0.676,3.674-1.835c4.086-5.436,13.219-11.213,22.098-11.213c0.872,0,1.734,0.059,2.563,0.173
			c0.212,0.029,0.423,0.043,0.632,0.043c1.867,0,3.579-1.14,4.276-2.917c0.776-1.978,0.098-4.229-1.642-5.446
			c-1.636-1.146-3.252-2.289-4.861-3.427c-13.85-9.795-26.933-19.047-46.904-26.563c-2.963-1.115-6.513-1.983-10.623-2.989
			c-13.812-3.379-34.684-8.486-56.069-29.582C286.574,349.417,285.406,348.969,284.232,348.969L284.232,348.969z"/>
	</g>
	<g>
		<path fill="#B2B2B2" d="M397.799,383.635c-0.415,0-0.828-0.112-1.188-0.332c-6.483-3.904-16.519-9.28-27.494-12.706
			c-3.774-1.176-7.586-2.204-11.621-3.293c-9.365-2.525-19.98-5.388-35.693-11.471c-1.143-0.442-1.737-1.704-1.354-2.865
			c0.319-0.961,1.214-1.577,2.182-1.577c0.204,0,0.41,0.027,0.615,0.083c3.543,0.978,13.226,1.735,23.477,2.534
			c7.084,0.552,14.408,1.124,20.868,1.843c19.609,2.186,35.383,6.527,48.223,13.271c0.865,0.455,1.349,1.41,1.203,2.377
			c-0.146,0.97-0.889,1.739-1.853,1.918c-6.429,1.197-13.044,5.103-15.386,9.082c-0.311,0.53-0.821,0.911-1.416,1.063
			C398.176,383.61,397.986,383.635,397.799,383.635L397.799,383.635z"/>
		<path fill="#1A1A1A" d="M322.631,353.689c6.235,1.725,28.552,2.648,44.704,4.447c16.153,1.799,32.918,5.41,47.406,13.021
			c-6.646,1.24-14.125,5.387-16.944,10.177c-5.578-3.359-16.151-9.234-27.995-12.93
			C357.388,364.532,345.164,362.412,322.631,353.689L322.631,353.689z M322.629,349.091c-1.936,0-3.727,1.231-4.363,3.154
			c-0.77,2.326,0.42,4.848,2.705,5.732c15.822,6.125,26.495,9.003,35.912,11.543c4.018,1.083,7.813,2.107,11.55,3.273
			c10.752,3.355,20.613,8.638,26.992,12.479c0.723,0.435,1.544,0.659,2.372,0.659c0.378,0,0.758-0.047,1.13-0.141
			c1.19-0.302,2.21-1.066,2.832-2.125c1.973-3.351,8.175-6.935,13.826-7.989c1.925-0.359,3.411-1.898,3.702-3.834
			c0.292-1.936-0.674-3.845-2.408-4.755c-13.099-6.881-29.139-11.303-49.035-13.52c-6.497-0.724-13.841-1.296-20.941-1.851
			c-9.693-0.756-19.716-1.537-23.046-2.458C323.447,349.145,323.035,349.091,322.629,349.091L322.629,349.091z"/>
	</g>
	<g>
		<path fill="#808080" d="M207.063,273.994c-0.183,0-0.368-0.022-0.553-0.068c-1.198-0.296-1.948-1.481-1.701-2.689
			c6.526-32.039,14.692-58.626,24.964-81.282c16.371-36.101,37.336-59.917,62.316-70.784c0.296-0.129,0.608-0.191,0.917-0.191
			c0.657,0,1.3,0.282,1.747,0.806c0.657,0.767,0.735,1.874,0.193,2.727c-14.823,23.334-20.431,39.391-16.665,47.721
			c0.44,0.968,0.156,2.112-0.684,2.764l-1.599,1.237c-19.638,15.208-49.315,38.189-66.73,98.103
			C208.978,273.336,208.064,273.994,207.063,273.994L207.063,273.994z"/>
		<path fill="#1A1A1A" d="M293.005,121.279c-8.824,13.888-22.439,37.472-16.819,49.901c-20.303,15.755-51.035,38.272-69.126,100.515
			C215.099,232.233,236.525,145.849,293.005,121.279L293.005,121.279z M293.004,116.681c-0.617,0-1.241,0.125-1.833,0.382
			c-25.519,11.101-46.88,35.305-63.491,71.941c-10.345,22.815-18.563,49.563-25.125,81.773c-0.492,2.417,1.01,4.791,3.404,5.382
			c0.369,0.091,0.74,0.135,1.104,0.135c2,0,3.83-1.313,4.412-3.315c17.206-59.197,45.368-81.003,65.93-96.926l1.6-1.239
			c1.68-1.304,2.247-3.589,1.371-5.526c-2.357-5.212-1.406-17.344,16.51-45.542c1.084-1.706,0.927-3.918-0.387-5.454
			C295.605,117.246,294.319,116.681,293.004,116.681L293.004,116.681z"/>
	</g>
	<g>
		<path fill="#999999" d="M248.09,230.025c-0.465,0-0.934-0.143-1.338-0.432c-0.961-0.69-1.242-1.998-0.649-3.021
			c14.894-25.681,69.901-93.937,91.318-97.493c0.126-0.021,0.252-0.031,0.376-0.031c0.836,0,1.619,0.459,2.024,1.213
			c0.467,0.866,0.328,1.934-0.343,2.653c-14.506,15.578-20.256,28.235-16.624,36.6c0.461,1.062,0.061,2.302-0.936,2.893
			c-27.72,16.444-56.695,39.284-72.099,56.835C249.37,229.756,248.733,230.025,248.09,230.025L248.09,230.025z"/>
		<path fill="#1A1A1A" d="M337.796,131.348c-13.176,14.151-21.635,28.521-17.05,39.081c-27.737,16.455-56.774,39.205-72.653,57.297
			C263.388,201.352,317.919,134.646,337.796,131.348L337.796,131.348z M337.797,126.75c-0.249,0-0.501,0.021-0.754,0.062
			c-12.57,2.086-33.727,23.461-49.261,41.026c-17.569,19.865-35.525,43.544-43.667,57.582c-1.187,2.047-0.626,4.66,1.295,6.041
			c0.808,0.581,1.748,0.864,2.68,0.864c1.283,0,2.554-0.535,3.458-1.565c15.258-17.386,44.009-40.042,71.543-56.376
			c1.992-1.182,2.794-3.661,1.871-5.785c-3.192-7.354,2.561-19.47,16.198-34.117c1.341-1.44,1.616-3.574,0.686-5.308
			C341.037,127.665,339.47,126.75,337.797,126.75L337.797,126.75z"/>
	</g>
	<g>
		<path fill="#B2B2B2" d="M288.535,215.324c-0.658,0-1.31-0.282-1.76-0.82c-0.764-0.911-0.71-2.252,0.126-3.095
			c15.206-15.35,66.202-47.847,87.14-47.847c0.861,0,1.685,0.052,2.447,0.158c0.954,0.133,1.727,0.847,1.932,1.792
			c0.204,0.944-0.205,1.916-1.021,2.431c-9.573,6.036-18.692,15.24-19.346,17.822c-0.243,0.953-1.063,1.646-2.043,1.727
			c-10.804,0.88-48.299,15.042-66.166,27.424C289.446,215.191,288.989,215.324,288.535,215.324L288.535,215.324z"/>
		<path fill="#1A1A1A" d="M374.041,165.86c0.753,0,1.465,0.045,2.131,0.137c-8.982,5.666-19.397,15.449-20.348,19.203
			c-11.786,0.961-49.629,15.589-67.289,27.826C303.044,198.381,353.728,165.861,374.041,165.86L374.041,165.86z M374.041,161.263
			L374.041,161.263c-13.275,0-35.303,11.729-47.251,18.721c-17.063,9.983-33.749,21.962-41.521,29.807
			c-1.672,1.688-1.783,4.371-0.256,6.191c0.905,1.078,2.208,1.643,3.525,1.643c0.907,0,1.82-0.267,2.616-0.819
			c17.617-12.208,54.462-26.159,65.044-27.022c1.934-0.158,3.557-1.511,4.063-3.378c0.914-2.279,9.229-10.757,18.363-16.518
			c1.633-1.03,2.448-2.972,2.041-4.859c-0.408-1.888-1.952-3.319-3.865-3.583C375.937,161.323,375.008,161.263,374.041,161.263
			L374.041,161.263z"/>
	</g>
	<g>
		<path fill="#CCCCCC" d="M391.061,223.007c-0.557,0-1.106-0.202-1.537-0.589c-7.668-6.89-21.082-11.003-35.883-11.003
			c-6.19,0-12.143,0.745-17.213,2.155c-0.206,0.056-0.412,0.083-0.616,0.083c-0.922,0-1.784-0.558-2.138-1.453
			c-0.432-1.095,0.031-2.338,1.074-2.884c16.017-8.367,29.25-12.267,41.646-12.267c8.792,0,17.291,2.022,25.983,6.18
			c0.793,0.379,1.299,1.174,1.308,2.051c0.008,0.878-0.483,1.684-1.268,2.078c-6.152,3.09-9.032,7.335-9.06,13.362
			c-0.004,0.906-0.539,1.724-1.367,2.09C391.693,222.942,391.375,223.007,391.061,223.007L391.061,223.007z"/>
		<path fill="#1A1A1A" d="M376.395,199.348c8.771,0,16.889,2.078,24.993,5.954c-7.42,3.724-10.298,8.938-10.327,15.406
			c-8.913-8.008-23.669-11.592-37.419-11.592c-6.39,0-12.561,0.774-17.829,2.237C351.566,203.123,364.574,199.348,376.395,199.348
			L376.395,199.348z M376.395,194.751c-12.78,0-26.352,3.98-42.711,12.527c-2.085,1.089-3.012,3.577-2.147,5.765
			c0.708,1.792,2.43,2.909,4.275,2.909c0.407,0,0.821-0.055,1.231-0.169c4.874-1.354,10.613-2.069,16.599-2.069
			c14.248,0,27.088,3.894,34.346,10.415c0.861,0.773,1.961,1.178,3.074,1.178c0.63,0,1.264-0.129,1.862-0.394
			c1.655-0.734,2.727-2.372,2.734-4.183c0.023-5.204,2.354-8.589,7.792-11.318c1.568-0.787,2.552-2.398,2.535-4.153
			c-0.017-1.755-1.031-3.347-2.613-4.104C394.362,196.846,385.538,194.751,376.395,194.751L376.395,194.751z"/>
	</g>
	<g>
		<path fill="#999999" d="M312.044,293.188c-11.409,0-22.059-3.604-32.357-7.093c-9.955-3.369-20.247-6.854-31.514-7.277
			c-1.017-0.039-1.888-0.742-2.14-1.729c-0.252-0.987,0.176-2.022,1.05-2.544c8.413-5.015,23.348-10.871,37.753-10.871
			c1.319,0,2.626,0.05,3.886,0.149c0.606,0.047,1.166,0.333,1.563,0.792c7.717,8.969,22.425,14.325,39.339,14.325
			c5.306,0,10.581-0.556,15.253-1.607c0.17-0.039,0.339-0.058,0.507-0.058c0.899,0,1.736,0.531,2.107,1.385
			c0.438,1.014,0.095,2.194-0.817,2.814C335.077,289.358,323.749,293.188,312.044,293.188L312.044,293.188z"/>
		<path fill="#1A1A1A" d="M284.838,265.972c1.244,0,2.481,0.046,3.704,0.142c9.253,10.753,25.856,15.125,41.081,15.125
			c5.582,0,10.979-0.588,15.759-1.664c-12.38,8.414-23.214,11.316-33.338,11.316c-21.817,0-40.32-13.488-63.783-14.369
			C256.874,271.385,271.318,265.972,284.838,265.972L284.838,265.972z M284.838,261.374c-14.874,0-30.269,6.032-38.932,11.198
			c-1.75,1.043-2.604,3.113-2.1,5.086s2.247,3.38,4.282,3.457c10.931,0.411,21.063,3.841,30.86,7.159
			c10.475,3.546,21.307,7.214,33.095,7.214c12.181,0,23.932-3.961,35.922-12.111c1.827-1.241,2.513-3.606,1.634-5.632
			c-0.74-1.708-2.417-2.769-4.216-2.769c-0.335,0-0.674,0.037-1.012,0.113c-4.509,1.015-9.608,1.552-14.749,1.552
			c-16.253,0-30.309-5.056-37.596-13.526c-0.792-0.92-1.915-1.489-3.125-1.584C287.584,261.427,286.217,261.374,284.838,261.374
			L284.838,261.374z"/>
	</g>
</g>
<g id="border">
	<path fill="#FBB03B" d="M495,0c55.229,0,100,44.771,100,100v395c0,55.229-44.771,100-100,100H100C44.771,595,0,550.229,0,495V100
		C0,44.771,44.771,0,100,0H495L495,0z M495,20H100c-44.111,0-80,35.888-80,80v395c0,44.112,35.889,80,80,80h395
		c44.112,0,80-35.888,80-80V100C575,55.888,539.112,20,495,20L495,20z"/>
	<path fill="none" stroke="#B2B2B2" stroke-width="3" d="M562,492.81c0,38.213-31.096,69.19-69.453,69.19H102.453
		C64.095,562,33,531.022,33,492.81V104.19C33,65.978,64.095,35,102.453,35h390.094C530.904,35,562,65.978,562,104.19V492.81z"/>
	<polygon fill="#FFFFFF" points="504.581,79.146 407.275,80.309 504.318,81.24 467.084,103.115 506.5,83.16 507.575,186.893 
		508.77,83.334 545.743,128.714 510.515,81.676 583.441,80.542 511.562,79.582 549.465,57.037 509.206,77.487 508.041,5.607 
		506.675,77.138 477.266,43.016 	"/>
</g>
</svg>
